<svg width="553" height="76" viewBox="0 0 553 76" fill="none" xmlns="http://www.w3.org/2000/svg">
<path d="M1.33 13.9895V5.07153H4.319C5.313 5.07153 6.07833 5.31887 6.615 5.81353C7.15167 6.3082 7.42 6.99187 7.42 7.86453C7.42 8.72787 7.15167 9.40687 6.615 9.90153C6.07833 10.3915 5.313 10.6365 4.319 10.6365H2.674V13.9895H1.33ZM2.674 9.47453H4.319C4.88833 9.47453 5.32 9.32753 5.614 9.03353C5.908 8.73953 6.055 8.34987 6.055 7.86453C6.055 7.37453 5.908 6.97787 5.614 6.67453C5.32 6.3712 4.88833 6.21953 4.319 6.21953H2.674V9.47453ZM13.502 13.9895L13.334 12.4425V9.63553C13.334 9.08487 13.2197 8.68587 12.991 8.43853C12.7623 8.18653 12.4007 8.06053 11.906 8.06053C11.626 8.06053 11.3763 8.10253 11.157 8.18653C10.9423 8.26587 10.772 8.3872 10.646 8.55053C10.5247 8.71387 10.464 8.9192 10.464 9.16653H8.99402C8.99402 8.67187 9.11535 8.27053 9.35802 7.96253C9.60068 7.65453 9.93902 7.43053 10.373 7.29053C10.8117 7.14587 11.3227 7.07353 11.906 7.07353C12.452 7.07353 12.9327 7.16453 13.348 7.34653C13.7633 7.52387 14.0853 7.80387 14.314 8.18653C14.5473 8.5692 14.664 9.06387 14.664 9.67053V13.9895H13.502ZM11.248 14.1715C10.6833 14.1715 10.2143 14.0735 9.84102 13.8775C9.46768 13.6769 9.18768 13.4155 9.00102 13.0935C8.81902 12.7715 8.72802 12.4285 8.72802 12.0645C8.72802 11.6212 8.84002 11.2572 9.06402 10.9725C9.29268 10.6832 9.60768 10.4685 10.009 10.3285C10.4103 10.1885 10.8723 10.1185 11.395 10.1185C11.7543 10.1185 12.1043 10.1512 12.445 10.2165C12.7857 10.2819 13.1217 10.3682 13.453 10.4755V11.2805C13.1823 11.1825 12.8813 11.1055 12.55 11.0495C12.2233 10.9889 11.9177 10.9585 11.633 10.9585C11.2083 10.9585 10.8537 11.0425 10.569 11.2105C10.2843 11.3785 10.142 11.6632 10.142 12.0645C10.142 12.3585 10.254 12.6129 10.478 12.8275C10.702 13.0375 11.0567 13.1425 11.542 13.1425C11.8967 13.1425 12.2093 13.0632 12.48 12.9045C12.7507 12.7412 12.9607 12.5382 13.11 12.2955C13.2593 12.0529 13.334 11.8102 13.334 11.5675H13.656C13.656 12.0342 13.5603 12.4659 13.369 12.8625C13.1823 13.2545 12.9093 13.5719 12.55 13.8145C12.1907 14.0525 11.7567 14.1715 11.248 14.1715ZM19.661 14.1715C19.0077 14.1715 18.457 14.0805 18.009 13.8985C17.561 13.7119 17.218 13.4552 16.98 13.1285C16.7467 12.7972 16.6254 12.4099 16.616 11.9665H17.869C17.8877 12.3539 18.0417 12.6409 18.331 12.8275C18.625 13.0142 19.0217 13.1075 19.521 13.1075C19.787 13.1075 20.0274 13.0655 20.242 12.9815C20.4614 12.8975 20.634 12.7832 20.76 12.6385C20.8907 12.4939 20.956 12.3305 20.956 12.1485C20.956 11.9199 20.872 11.7402 20.704 11.6095C20.536 11.4742 20.2654 11.3552 19.892 11.2525L18.513 10.7835C17.9624 10.5969 17.54 10.3495 17.246 10.0415C16.952 9.72887 16.805 9.35553 16.805 8.92153C16.805 8.3662 17.0524 7.92053 17.547 7.58453C18.0417 7.24387 18.6974 7.07353 19.514 7.07353C20.3587 7.07353 21.0097 7.2532 21.467 7.61253C21.929 7.9672 22.1694 8.41287 22.188 8.94953H20.907C20.8744 8.68353 20.7414 8.48053 20.508 8.34053C20.2794 8.19587 19.948 8.12353 19.514 8.12353C19.108 8.12353 18.7884 8.2122 18.555 8.38953C18.3264 8.56687 18.212 8.76753 18.212 8.99153C18.212 9.39287 18.5574 9.69153 19.248 9.88753L20.697 10.3985C21.2477 10.5759 21.6724 10.8045 21.971 11.0845C22.2697 11.3645 22.419 11.7192 22.419 12.1485C22.419 12.4939 22.3047 12.8205 22.076 13.1285C21.8474 13.4365 21.5254 13.6885 21.11 13.8845C20.6994 14.0759 20.2164 14.1715 19.661 14.1715ZM27.0302 14.1715C26.3768 14.1715 25.8262 14.0805 25.3782 13.8985C24.9302 13.7119 24.5872 13.4552 24.3492 13.1285C24.1158 12.7972 23.9945 12.4099 23.9852 11.9665H25.2382C25.2568 12.3539 25.4108 12.6409 25.7002 12.8275C25.9942 13.0142 26.3908 13.1075 26.8902 13.1075C27.1562 13.1075 27.3965 13.0655 27.6112 12.9815C27.8305 12.8975 28.0032 12.7832 28.1292 12.6385C28.2598 12.4939 28.3252 12.3305 28.3252 12.1485C28.3252 11.9199 28.2412 11.7402 28.0732 11.6095C27.9052 11.4742 27.6345 11.3552 27.2612 11.2525L25.8822 10.7835C25.3315 10.5969 24.9092 10.3495 24.6152 10.0415C24.3212 9.72887 24.1742 9.35553 24.1742 8.92153C24.1742 8.3662 24.4215 7.92053 24.9162 7.58453C25.4108 7.24387 26.0665 7.07353 26.8832 7.07353C27.7278 7.07353 28.3788 7.2532 28.8362 7.61253C29.2982 7.9672 29.5385 8.41287 29.5572 8.94953H28.2762C28.2435 8.68353 28.1105 8.48053 27.8772 8.34053C27.6485 8.19587 27.3172 8.12353 26.8832 8.12353C26.4772 8.12353 26.1575 8.2122 25.9242 8.38953C25.6955 8.56687 25.5812 8.76753 25.5812 8.99153C25.5812 9.39287 25.9265 9.69153 26.6172 9.88753L28.0662 10.3985C28.6168 10.5759 29.0415 10.8045 29.3402 11.0845C29.6388 11.3645 29.7882 11.7192 29.7882 12.1485C29.7882 12.4939 29.6738 12.8205 29.4452 13.1285C29.2165 13.4365 28.8945 13.6885 28.4792 13.8845C28.0685 14.0759 27.5855 14.1715 27.0302 14.1715ZM30.7873 7.25553H32.1733L33.7763 12.6595H33.6293L35.1763 7.59853H36.3313L37.8713 12.6735H37.7313L39.3343 7.25553H40.6643L38.4523 13.9895H37.1503L35.6243 9.22953H35.8273L34.3223 13.9895H33.0203L30.7873 7.25553ZM44.8053 14.1715C44.1939 14.1715 43.6456 14.0385 43.1603 13.7725C42.6796 13.5065 42.2993 13.1099 42.0193 12.5825C41.7393 12.0552 41.5993 11.4042 41.5993 10.6295C41.5993 9.84087 41.7393 9.1852 42.0193 8.66253C42.2993 8.1352 42.6796 7.73853 43.1603 7.47253C43.6456 7.20653 44.1939 7.07353 44.8053 7.07353C45.4073 7.07353 45.9486 7.20653 46.4293 7.47253C46.9099 7.73853 47.2879 8.1352 47.5633 8.66253C47.8433 9.1852 47.9833 9.84087 47.9833 10.6295C47.9833 11.4042 47.8433 12.0552 47.5633 12.5825C47.2879 13.1099 46.9099 13.5065 46.4293 13.7725C45.9486 14.0385 45.4073 14.1715 44.8053 14.1715ZM44.7632 13.0095C45.1506 13.0095 45.4843 12.9162 45.7643 12.7295C46.0489 12.5429 46.2659 12.2722 46.4153 11.9175C46.5693 11.5582 46.6463 11.1289 46.6463 10.6295C46.6463 9.8642 46.4899 9.27153 46.1773 8.85153C45.8693 8.43153 45.4236 8.22153 44.8403 8.22153C44.4483 8.22153 44.1099 8.3172 43.8253 8.50853C43.5453 8.6952 43.3283 8.9682 43.1743 9.32753C43.0249 9.6822 42.9503 10.1162 42.9503 10.6295C42.9503 11.3809 43.1066 11.9665 43.4193 12.3865C43.7319 12.8019 44.1799 13.0095 44.7632 13.0095ZM50.0369 13.9895V7.23453H51.3669V13.9895H50.0369ZM51.0029 10.9795C51.0029 10.1162 51.0915 9.39987 51.2689 8.83053C51.4509 8.25653 51.7029 7.82953 52.0249 7.54953C52.3515 7.26953 52.7342 7.12953 53.1729 7.12953C53.3035 7.12953 53.4249 7.13887 53.5369 7.15753C53.6535 7.1762 53.7679 7.20187 53.8799 7.23453L53.8309 8.55753C53.7049 8.52487 53.5672 8.49687 53.4179 8.47353C53.2732 8.44553 53.1402 8.43153 53.0189 8.43153C52.6362 8.43153 52.3235 8.5342 52.0809 8.73953C51.8382 8.9402 51.6585 9.23187 51.5419 9.61453C51.4252 9.99253 51.3669 10.4475 51.3669 10.9795H51.0029ZM57.7162 14.1715C57.1655 14.1715 56.6592 14.0245 56.1972 13.7305C55.7352 13.4319 55.3665 13.0165 55.0912 12.4845C54.8205 11.9479 54.6852 11.3179 54.6852 10.5945C54.6852 9.87587 54.8182 9.25287 55.0842 8.72553C55.3549 8.1982 55.7119 7.7922 56.1552 7.50753C56.5985 7.2182 57.0909 7.07353 57.6322 7.07353C58.1269 7.07353 58.5585 7.19487 58.9272 7.43753C59.2959 7.67553 59.5805 8.0232 59.7812 8.48053C59.9865 8.93787 60.0892 9.49553 60.0892 10.1535H59.6272C59.6272 9.74753 59.5455 9.40453 59.3822 9.12453C59.2189 8.83987 59.0065 8.6252 58.7452 8.48053C58.4839 8.33587 58.2039 8.26353 57.9052 8.26353C57.5552 8.26353 57.2379 8.3592 56.9532 8.55053C56.6732 8.7372 56.4492 9.00553 56.2812 9.35553C56.1179 9.70087 56.0362 10.1139 56.0362 10.5945C56.0362 11.0799 56.1179 11.5022 56.2812 11.8615C56.4492 12.2162 56.6732 12.4892 56.9532 12.6805C57.2379 12.8719 57.5529 12.9675 57.8982 12.9675C58.1829 12.9675 58.4559 12.8929 58.7172 12.7435C58.9832 12.5895 59.2002 12.3702 59.3682 12.0855C59.5409 11.8009 59.6272 11.4625 59.6272 11.0705H60.0892C60.0892 11.7425 59.9819 12.3095 59.7672 12.7715C59.5572 13.2335 59.2725 13.5835 58.9132 13.8215C58.5539 14.0549 58.1549 14.1715 57.7162 14.1715ZM59.8582 13.9895L59.6272 12.3725V4.42053H60.9642V13.9895H59.8582Z" fill="#505153"/>
<rect x="0.25" y="21.2395" width="552.5" height="54.5" rx="3.75" stroke="#828282" stroke-width="0.5"/>
<path d="M23.464 50.6695L21.88 46.4615C21.752 46.1362 21.6213 45.7229 21.488 45.2215C21.4293 45.4722 21.3653 45.7042 21.296 45.9175C21.2267 46.1255 21.1627 46.3095 21.104 46.4695L19.52 50.6695H23.464ZM27.008 54.9895H25.56C25.3947 54.9895 25.2613 54.9495 25.16 54.8695C25.0587 54.7842 24.9813 54.6802 24.928 54.5575L23.968 52.0135H19.008L18.048 54.5575C18.0053 54.6642 17.9307 54.7629 17.824 54.8535C17.7173 54.9442 17.584 54.9895 17.424 54.9895H15.976L20.544 43.4695H22.44L27.008 54.9895ZM30.164 55.1175C29.4867 55.1175 28.964 54.9282 28.596 54.5495C28.2333 54.1655 28.052 53.6269 28.052 52.9335V48.1815H27.156C27.06 48.1815 26.9773 48.1522 26.908 48.0935C26.8387 48.0295 26.804 47.9362 26.804 47.8135V47.1175L28.124 46.9255L28.5 44.5655C28.5267 44.4749 28.572 44.4029 28.636 44.3495C28.7 44.2909 28.7853 44.2615 28.892 44.2615H29.772V46.9415H32.036V48.1815H29.772V52.8135C29.772 53.1069 29.844 53.3309 29.988 53.4855C30.132 53.6402 30.324 53.7175 30.564 53.7175C30.6973 53.7175 30.812 53.7015 30.908 53.6695C31.004 53.6322 31.0867 53.5949 31.156 53.5575C31.2253 53.5149 31.284 53.4775 31.332 53.4455C31.3853 53.4082 31.436 53.3895 31.484 53.3895C31.58 53.3895 31.6573 53.4429 31.716 53.5495L32.228 54.3895C31.9613 54.6242 31.6467 54.8055 31.284 54.9335C30.9213 55.0562 30.548 55.1175 30.164 55.1175ZM39.1281 43.1495V54.9895H37.4081V43.1495H39.1281ZM46.6031 49.9895C46.6031 49.7015 46.5605 49.4349 46.4751 49.1895C46.3951 48.9389 46.2751 48.7229 46.1151 48.5415C45.9551 48.3549 45.7551 48.2109 45.5151 48.1095C45.2805 48.0029 45.0085 47.9495 44.6991 47.9495C44.0751 47.9495 43.5845 48.1282 43.2271 48.4855C42.8698 48.8429 42.6431 49.3442 42.5471 49.9895H46.6031ZM42.4991 51.0455C42.5205 51.5095 42.5925 51.9122 42.7151 52.2535C42.8378 52.5895 43.0005 52.8695 43.2031 53.0935C43.4111 53.3175 43.6565 53.4855 43.9391 53.5975C44.2271 53.7042 44.5471 53.7575 44.8991 53.7575C45.2351 53.7575 45.5258 53.7202 45.7711 53.6455C46.0165 53.5655 46.2298 53.4802 46.4111 53.3895C46.5925 53.2935 46.7471 53.2082 46.8751 53.1335C47.0031 53.0535 47.1205 53.0135 47.2271 53.0135C47.3658 53.0135 47.4725 53.0669 47.5471 53.1735L48.0351 53.8055C47.8325 54.0455 47.6031 54.2482 47.3471 54.4135C47.0911 54.5789 46.8191 54.7149 46.5311 54.8215C46.2431 54.9229 45.9471 54.9949 45.6431 55.0375C45.3391 55.0855 45.0431 55.1095 44.7551 55.1095C44.1898 55.1095 43.6645 55.0162 43.1791 54.8295C42.6991 54.6375 42.2805 54.3575 41.9231 53.9895C41.5711 53.6215 41.2938 53.1655 41.0911 52.6215C40.8938 52.0775 40.7951 51.4509 40.7951 50.7415C40.7951 50.1762 40.8831 49.6482 41.0591 49.1575C41.2405 48.6669 41.4965 48.2402 41.8271 47.8775C42.1631 47.5149 42.5685 47.2295 43.0431 47.0215C43.5231 46.8082 44.0645 46.7015 44.6671 46.7015C45.1685 46.7015 45.6325 46.7842 46.0591 46.9495C46.4858 47.1095 46.8538 47.3469 47.1631 47.6615C47.4725 47.9762 47.7125 48.3629 47.8831 48.8215C48.0591 49.2749 48.1471 49.7922 48.1471 50.3735C48.1471 50.6402 48.1178 50.8189 48.0591 50.9095C48.0005 51.0002 47.8938 51.0455 47.7391 51.0455H42.4991ZM54.1111 51.4215C53.4978 51.4429 52.9805 51.4935 52.5591 51.5735C52.1378 51.6482 51.7965 51.7469 51.5351 51.8695C51.2738 51.9869 51.0845 52.1282 50.9671 52.2935C50.8551 52.4589 50.7991 52.6402 50.7991 52.8375C50.7991 53.0295 50.8285 53.1949 50.8871 53.3335C50.9511 53.4669 51.0365 53.5789 51.1431 53.6695C51.2551 53.7549 51.3831 53.8189 51.5271 53.8615C51.6765 53.8989 51.8391 53.9175 52.0151 53.9175C52.4631 53.9175 52.8471 53.8349 53.1671 53.6695C53.4925 53.4989 53.8071 53.2535 54.1111 52.9335V51.4215ZM49.5511 47.9655C50.4738 47.1069 51.5725 46.6775 52.8471 46.6775C53.3165 46.6775 53.7325 46.7549 54.0951 46.9095C54.4631 47.0589 54.7698 47.2722 55.0151 47.5495C55.2658 47.8269 55.4551 48.1575 55.5831 48.5415C55.7165 48.9202 55.7831 49.3415 55.7831 49.8055V54.9895H55.0151C54.8498 54.9895 54.7245 54.9655 54.6391 54.9175C54.5538 54.8642 54.4818 54.7602 54.4231 54.6055L54.2551 53.9415C54.0471 54.1282 53.8418 54.2962 53.6391 54.4455C53.4365 54.5895 53.2258 54.7122 53.0071 54.8135C52.7938 54.9149 52.5618 54.9895 52.3111 55.0375C52.0658 55.0909 51.7938 55.1175 51.4951 55.1175C51.1645 55.1175 50.8551 55.0722 50.5671 54.9815C50.2845 54.8909 50.0391 54.7549 49.8311 54.5735C49.6231 54.3869 49.4578 54.1575 49.3351 53.8855C49.2178 53.6135 49.1591 53.2935 49.1591 52.9255C49.1591 52.6109 49.2418 52.3042 49.4071 52.0055C49.5778 51.7069 49.8551 51.4402 50.2391 51.2055C50.6285 50.9655 51.1378 50.7682 51.7671 50.6135C52.4018 50.4589 53.1831 50.3709 54.1111 50.3495V49.8055C54.1111 49.2189 53.9858 48.7815 53.7351 48.4935C53.4845 48.2055 53.1165 48.0615 52.6311 48.0615C52.3005 48.0615 52.0231 48.1042 51.7991 48.1895C51.5751 48.2695 51.3805 48.3575 51.2151 48.4535C51.0498 48.5495 50.9031 48.6402 50.7751 48.7255C50.6471 48.8055 50.5111 48.8455 50.3671 48.8455C50.2498 48.8455 50.1485 48.8162 50.0631 48.7575C49.9831 48.6935 49.9165 48.6162 49.8631 48.5255L49.5511 47.9655ZM62.67 48.3095C62.6273 48.3842 62.5793 48.4375 62.526 48.4695C62.4727 48.5015 62.406 48.5175 62.326 48.5175C62.2353 48.5175 62.1367 48.4909 62.03 48.4375C61.9233 48.3789 61.798 48.3149 61.654 48.2455C61.51 48.1762 61.3393 48.1149 61.142 48.0615C60.95 48.0029 60.7233 47.9735 60.462 47.9735C60.2487 47.9735 60.054 48.0002 59.878 48.0535C59.7073 48.1015 59.5607 48.1735 59.438 48.2695C59.3207 48.3602 59.23 48.4695 59.166 48.5975C59.102 48.7202 59.07 48.8535 59.07 48.9975C59.07 49.1895 59.1287 49.3495 59.246 49.4775C59.3633 49.6055 59.518 49.7175 59.71 49.8135C59.902 49.9042 60.1207 49.9869 60.366 50.0615C60.6113 50.1362 60.862 50.2162 61.118 50.3015C61.374 50.3869 61.6247 50.4855 61.87 50.5975C62.1153 50.7095 62.334 50.8482 62.526 51.0135C62.718 51.1735 62.8727 51.3709 62.99 51.6055C63.1073 51.8349 63.166 52.1149 63.166 52.4455C63.166 52.8295 63.0967 53.1842 62.958 53.5095C62.8193 53.8349 62.6167 54.1175 62.35 54.3575C62.0833 54.5975 61.75 54.7842 61.35 54.9175C60.9553 55.0509 60.502 55.1175 59.99 55.1175C59.7073 55.1175 59.4327 55.0909 59.166 55.0375C58.9047 54.9895 58.654 54.9229 58.414 54.8375C58.1793 54.7469 57.958 54.6402 57.75 54.5175C57.5473 54.3949 57.366 54.2615 57.206 54.1175L57.606 53.4615C57.654 53.3815 57.7127 53.3202 57.782 53.2775C57.8567 53.2295 57.9473 53.2055 58.054 53.2055C58.166 53.2055 58.2753 53.2429 58.382 53.3175C58.494 53.3869 58.622 53.4642 58.766 53.5495C58.9153 53.6349 59.094 53.7149 59.302 53.7895C59.51 53.8589 59.7687 53.8935 60.078 53.8935C60.334 53.8935 60.5553 53.8642 60.742 53.8055C60.9287 53.7415 61.0833 53.6562 61.206 53.5495C61.3287 53.4429 61.4193 53.3229 61.478 53.1895C61.5367 53.0509 61.566 52.9042 61.566 52.7495C61.566 52.5415 61.5073 52.3709 61.39 52.2375C61.2727 52.1042 61.1153 51.9895 60.918 51.8935C60.726 51.7975 60.5047 51.7122 60.254 51.6375C60.0087 51.5629 59.758 51.4829 59.502 51.3975C59.246 51.3122 58.9927 51.2135 58.742 51.1015C58.4967 50.9895 58.2753 50.8482 58.078 50.6775C57.886 50.5015 57.7313 50.2909 57.614 50.0455C57.4967 49.7949 57.438 49.4909 57.438 49.1335C57.438 48.8082 57.502 48.4989 57.63 48.2055C57.7633 47.9122 57.9553 47.6535 58.206 47.4295C58.462 47.2055 58.774 47.0295 59.142 46.9015C59.5153 46.7682 59.9447 46.7015 60.43 46.7015C60.9793 46.7015 61.478 46.7895 61.926 46.9655C62.374 47.1415 62.75 47.3815 63.054 47.6855L62.67 48.3095ZM67.3984 55.1175C66.721 55.1175 66.1984 54.9282 65.8304 54.5495C65.4677 54.1655 65.2864 53.6269 65.2864 52.9335V48.1815H64.3904C64.2944 48.1815 64.2117 48.1522 64.1424 48.0935C64.073 48.0295 64.0384 47.9362 64.0384 47.8135V47.1175L65.3584 46.9255L65.7344 44.5655C65.761 44.4749 65.8064 44.4029 65.8704 44.3495C65.9344 44.2909 66.0197 44.2615 66.1264 44.2615H67.0064V46.9415H69.2704V48.1815H67.0064V52.8135C67.0064 53.1069 67.0784 53.3309 67.2224 53.4855C67.3664 53.6402 67.5584 53.7175 67.7984 53.7175C67.9317 53.7175 68.0464 53.7015 68.1424 53.6695C68.2384 53.6322 68.321 53.5949 68.3904 53.5575C68.4597 53.5149 68.5184 53.4775 68.5664 53.4455C68.6197 53.4082 68.6704 53.3895 68.7184 53.3895C68.8144 53.3895 68.8917 53.4429 68.9504 53.5495L69.4624 54.3895C69.1957 54.6242 68.881 54.8055 68.5184 54.9335C68.1557 55.0562 67.7824 55.1175 67.3984 55.1175ZM78.2025 53.7575C78.5492 53.7575 78.8585 53.7095 79.1305 53.6135C79.4025 53.5122 79.6292 53.3735 79.8105 53.1975C79.9972 53.0162 80.1385 52.8029 80.2345 52.5575C80.3305 52.3122 80.3785 52.0455 80.3785 51.7575C80.3785 51.4055 80.3225 51.1015 80.2105 50.8455C80.1038 50.5895 79.9518 50.3789 79.7545 50.2135C79.5625 50.0429 79.3332 49.9175 79.0665 49.8375C78.7998 49.7522 78.5118 49.7095 78.2025 49.7095C77.8932 49.7095 77.6052 49.7522 77.3385 49.8375C77.0718 49.9175 76.8398 50.0429 76.6425 50.2135C76.4505 50.3789 76.2985 50.5895 76.1865 50.8455C76.0798 51.1015 76.0265 51.4055 76.0265 51.7575C76.0265 52.0455 76.0745 52.3122 76.1705 52.5575C76.2665 52.8029 76.4052 53.0162 76.5865 53.1975C76.7732 53.3735 77.0025 53.5122 77.2745 53.6135C77.5465 53.7095 77.8558 53.7575 78.2025 53.7575ZM78.2025 44.6615C77.8878 44.6615 77.6105 44.7095 77.3705 44.8055C77.1358 44.9015 76.9412 45.0295 76.7865 45.1895C76.6318 45.3495 76.5145 45.5389 76.4345 45.7575C76.3598 45.9709 76.3225 46.1975 76.3225 46.4375C76.3225 46.6775 76.3545 46.9122 76.4185 47.1415C76.4878 47.3709 76.5945 47.5762 76.7385 47.7575C76.8878 47.9335 77.0825 48.0749 77.3225 48.1815C77.5625 48.2882 77.8558 48.3415 78.2025 48.3415C78.5492 48.3415 78.8425 48.2882 79.0825 48.1815C79.3225 48.0749 79.5145 47.9335 79.6585 47.7575C79.8078 47.5762 79.9145 47.3709 79.9785 47.1415C80.0478 46.9122 80.0825 46.6775 80.0825 46.4375C80.0825 46.1975 80.0425 45.9709 79.9625 45.7575C79.8878 45.5389 79.7705 45.3495 79.6105 45.1895C79.4558 45.0295 79.2612 44.9015 79.0265 44.8055C78.7918 44.7095 78.5172 44.6615 78.2025 44.6615ZM80.0185 48.9815C80.7278 49.2002 81.2585 49.5469 81.6105 50.0215C81.9678 50.4962 82.1465 51.0855 82.1465 51.7895C82.1465 52.2962 82.0505 52.7549 81.8585 53.1655C81.6665 53.5762 81.3972 53.9255 81.0505 54.2135C80.7038 54.5015 80.2878 54.7255 79.8025 54.8855C79.3225 55.0402 78.7892 55.1175 78.2025 55.1175C77.6158 55.1175 77.0798 55.0402 76.5945 54.8855C76.1145 54.7255 75.7012 54.5015 75.3545 54.2135C75.0078 53.9255 74.7385 53.5762 74.5465 53.1655C74.3545 52.7549 74.2585 52.2962 74.2585 51.7895C74.2585 51.0855 74.4345 50.4962 74.7865 50.0215C75.1438 49.5469 75.6772 49.2002 76.3865 48.9815C75.8105 48.7522 75.3758 48.4189 75.0825 47.9815C74.7945 47.5442 74.6505 47.0189 74.6505 46.4055C74.6505 45.9735 74.7358 45.5709 74.9065 45.1975C75.0772 44.8242 75.3172 44.5015 75.6265 44.2295C75.9412 43.9522 76.3172 43.7362 76.7545 43.5815C77.1918 43.4215 77.6745 43.3415 78.2025 43.3415C78.7305 43.3415 79.2105 43.4215 79.6425 43.5815C80.0798 43.7362 80.4532 43.9522 80.7625 44.2295C81.0772 44.5015 81.3198 44.8242 81.4905 45.1975C81.6665 45.5709 81.7545 45.9735 81.7545 46.4055C81.7545 47.0189 81.6078 47.5442 81.3145 47.9815C81.0265 48.4189 80.5945 48.7522 80.0185 48.9815ZM96.1961 52.4215C96.2975 52.4215 96.3855 52.4615 96.4601 52.5415L97.2041 53.3495C96.7348 53.9149 96.1588 54.3522 95.4761 54.6615C94.7935 54.9655 93.9775 55.1175 93.0281 55.1175C92.1855 55.1175 91.4228 54.9735 90.7401 54.6855C90.0628 54.3922 89.4841 53.9869 89.0041 53.4695C88.5241 52.9469 88.1535 52.3255 87.8921 51.6055C87.6361 50.8855 87.5081 50.0935 87.5081 49.2295C87.5081 48.3655 87.6441 47.5735 87.9161 46.8535C88.1935 46.1282 88.5801 45.5069 89.0761 44.9895C89.5775 44.4669 90.1748 44.0615 90.8681 43.7735C91.5668 43.4855 92.3348 43.3415 93.1721 43.3415C94.0041 43.3415 94.7375 43.4775 95.3721 43.7495C96.0121 44.0162 96.5668 44.3735 97.0361 44.8215L96.4201 45.6935C96.3775 45.7522 96.3268 45.8029 96.2681 45.8455C96.2095 45.8882 96.1295 45.9095 96.0281 45.9095C95.9215 45.9095 95.7988 45.8615 95.6601 45.7655C95.5268 45.6642 95.3535 45.5549 95.1401 45.4375C94.9321 45.3149 94.6681 45.2055 94.3481 45.1095C94.0335 45.0082 93.6388 44.9575 93.1641 44.9575C92.6148 44.9575 92.1108 45.0535 91.6521 45.2455C91.1935 45.4375 90.7988 45.7175 90.4681 46.0855C90.1375 46.4535 89.8788 46.9015 89.6921 47.4295C89.5108 47.9575 89.4201 48.5575 89.4201 49.2295C89.4201 49.9069 89.5161 50.5122 89.7081 51.0455C89.9001 51.5735 90.1641 52.0215 90.5001 52.3895C90.8361 52.7522 91.2308 53.0295 91.6841 53.2215C92.1375 53.4135 92.6255 53.5095 93.1481 53.5095C93.4681 53.5095 93.7535 53.4935 94.0041 53.4615C94.2601 53.4242 94.4948 53.3682 94.7081 53.2935C94.9215 53.2135 95.1215 53.1149 95.3081 52.9975C95.5001 52.8802 95.6895 52.7362 95.8761 52.5655C95.9828 52.4695 96.0895 52.4215 96.1961 52.4215ZM100.221 47.7975C100.557 47.4669 100.925 47.2029 101.325 47.0055C101.725 46.8029 102.192 46.7015 102.725 46.7015C103.173 46.7015 103.565 46.7762 103.901 46.9255C104.242 47.0749 104.528 47.2855 104.757 47.5575C104.992 47.8295 105.168 48.1575 105.285 48.5415C105.402 48.9202 105.461 49.3389 105.461 49.7975V54.9895H103.749V49.7975C103.749 49.2482 103.621 48.8215 103.365 48.5175C103.114 48.2135 102.73 48.0615 102.213 48.0615C101.829 48.0615 101.472 48.1495 101.141 48.3255C100.816 48.5015 100.509 48.7415 100.221 49.0455V54.9895H98.5011V43.1495H100.221V47.7975ZM111.83 51.4215C111.217 51.4429 110.699 51.4935 110.278 51.5735C109.857 51.6482 109.515 51.7469 109.254 51.8695C108.993 51.9869 108.803 52.1282 108.686 52.2935C108.574 52.4589 108.518 52.6402 108.518 52.8375C108.518 53.0295 108.547 53.1949 108.606 53.3335C108.67 53.4669 108.755 53.5789 108.862 53.6695C108.974 53.7549 109.102 53.8189 109.246 53.8615C109.395 53.8989 109.558 53.9175 109.734 53.9175C110.182 53.9175 110.566 53.8349 110.886 53.6695C111.211 53.4989 111.526 53.2535 111.83 52.9335V51.4215ZM107.27 47.9655C108.193 47.1069 109.291 46.6775 110.566 46.6775C111.035 46.6775 111.451 46.7549 111.814 46.9095C112.182 47.0589 112.489 47.2722 112.734 47.5495C112.985 47.8269 113.174 48.1575 113.302 48.5415C113.435 48.9202 113.502 49.3415 113.502 49.8055V54.9895H112.734C112.569 54.9895 112.443 54.9655 112.358 54.9175C112.273 54.8642 112.201 54.7602 112.142 54.6055L111.974 53.9415C111.766 54.1282 111.561 54.2962 111.358 54.4455C111.155 54.5895 110.945 54.7122 110.726 54.8135C110.513 54.9149 110.281 54.9895 110.03 55.0375C109.785 55.0909 109.513 55.1175 109.214 55.1175C108.883 55.1175 108.574 55.0722 108.286 54.9815C108.003 54.8909 107.758 54.7549 107.55 54.5735C107.342 54.3869 107.177 54.1575 107.054 53.8855C106.937 53.6135 106.878 53.2935 106.878 52.9255C106.878 52.6109 106.961 52.3042 107.126 52.0055C107.297 51.7069 107.574 51.4402 107.958 51.2055C108.347 50.9655 108.857 50.7682 109.486 50.6135C110.121 50.4589 110.902 50.3709 111.83 50.3495V49.8055C111.83 49.2189 111.705 48.7815 111.454 48.4935C111.203 48.2055 110.835 48.0615 110.35 48.0615C110.019 48.0615 109.742 48.1042 109.518 48.1895C109.294 48.2695 109.099 48.3575 108.934 48.4535C108.769 48.5495 108.622 48.6402 108.494 48.7255C108.366 48.8055 108.23 48.8455 108.086 48.8455C107.969 48.8455 107.867 48.8162 107.782 48.7575C107.702 48.6935 107.635 48.6162 107.582 48.5255L107.27 47.9655ZM117.141 48.3415C117.397 47.8242 117.706 47.4189 118.069 47.1255C118.431 46.8269 118.866 46.6775 119.373 46.6775C119.549 46.6775 119.714 46.6989 119.869 46.7415C120.023 46.7789 120.162 46.8375 120.285 46.9175L120.165 48.2135C120.143 48.3042 120.109 48.3682 120.061 48.4055C120.018 48.4375 119.959 48.4535 119.885 48.4535C119.805 48.4535 119.69 48.4402 119.541 48.4135C119.391 48.3815 119.234 48.3655 119.069 48.3655C118.829 48.3655 118.615 48.4002 118.429 48.4695C118.247 48.5389 118.082 48.6402 117.933 48.7735C117.789 48.9069 117.661 49.0695 117.549 49.2615C117.437 49.4535 117.333 49.6722 117.237 49.9175V54.9895H115.517V46.8295H116.517C116.698 46.8295 116.823 46.8642 116.893 46.9335C116.962 46.9975 117.01 47.1122 117.037 47.2775L117.141 48.3415ZM125.658 51.4215C125.045 51.4429 124.527 51.4935 124.106 51.5735C123.685 51.6482 123.343 51.7469 123.082 51.8695C122.821 51.9869 122.631 52.1282 122.514 52.2935C122.402 52.4589 122.346 52.6402 122.346 52.8375C122.346 53.0295 122.375 53.1949 122.434 53.3335C122.498 53.4669 122.583 53.5789 122.69 53.6695C122.802 53.7549 122.93 53.8189 123.074 53.8615C123.223 53.8989 123.386 53.9175 123.562 53.9175C124.01 53.9175 124.394 53.8349 124.714 53.6695C125.039 53.4989 125.354 53.2535 125.658 52.9335V51.4215ZM121.098 47.9655C122.021 47.1069 123.119 46.6775 124.394 46.6775C124.863 46.6775 125.279 46.7549 125.642 46.9095C126.01 47.0589 126.317 47.2722 126.562 47.5495C126.813 47.8269 127.002 48.1575 127.13 48.5415C127.263 48.9202 127.33 49.3415 127.33 49.8055V54.9895H126.562C126.397 54.9895 126.271 54.9655 126.186 54.9175C126.101 54.8642 126.029 54.7602 125.97 54.6055L125.802 53.9415C125.594 54.1282 125.389 54.2962 125.186 54.4455C124.983 54.5895 124.773 54.7122 124.554 54.8135C124.341 54.9149 124.109 54.9895 123.858 55.0375C123.613 55.0909 123.341 55.1175 123.042 55.1175C122.711 55.1175 122.402 55.0722 122.114 54.9815C121.831 54.8909 121.586 54.7549 121.378 54.5735C121.17 54.3869 121.005 54.1575 120.882 53.8855C120.765 53.6135 120.706 53.2935 120.706 52.9255C120.706 52.6109 120.789 52.3042 120.954 52.0055C121.125 51.7069 121.402 51.4402 121.786 51.2055C122.175 50.9655 122.685 50.7682 123.314 50.6135C123.949 50.4589 124.73 50.3709 125.658 50.3495V49.8055C125.658 49.2189 125.533 48.7815 125.282 48.4935C125.031 48.2055 124.663 48.0615 124.178 48.0615C123.847 48.0615 123.57 48.1042 123.346 48.1895C123.122 48.2695 122.927 48.3575 122.762 48.4535C122.597 48.5495 122.45 48.6402 122.322 48.7255C122.194 48.8055 122.058 48.8455 121.914 48.8455C121.797 48.8455 121.695 48.8162 121.61 48.7575C121.53 48.6935 121.463 48.6162 121.41 48.5255L121.098 47.9655ZM135.113 48.4295C135.06 48.4989 135.009 48.5522 134.961 48.5895C134.913 48.6269 134.844 48.6455 134.753 48.6455C134.662 48.6455 134.566 48.6135 134.465 48.5495C134.369 48.4855 134.252 48.4162 134.113 48.3415C133.98 48.2615 133.817 48.1895 133.625 48.1255C133.433 48.0615 133.193 48.0295 132.905 48.0295C132.532 48.0295 132.204 48.0962 131.921 48.2295C131.644 48.3629 131.409 48.5549 131.217 48.8055C131.03 49.0509 130.889 49.3522 130.793 49.7095C130.702 50.0615 130.657 50.4589 130.657 50.9015C130.657 51.3602 130.708 51.7682 130.809 52.1255C130.91 52.4829 131.054 52.7842 131.241 53.0295C131.433 53.2749 131.662 53.4615 131.929 53.5895C132.201 53.7175 132.505 53.7815 132.841 53.7815C133.172 53.7815 133.441 53.7415 133.649 53.6615C133.857 53.5815 134.03 53.4935 134.169 53.3975C134.308 53.3015 134.425 53.2135 134.521 53.1335C134.622 53.0535 134.729 53.0135 134.841 53.0135C134.98 53.0135 135.086 53.0669 135.161 53.1735L135.649 53.8055C135.452 54.0455 135.233 54.2482 134.993 54.4135C134.753 54.5789 134.5 54.7149 134.233 54.8215C133.966 54.9229 133.689 54.9949 133.401 55.0375C133.113 55.0855 132.822 55.1095 132.529 55.1095C132.022 55.1095 131.548 55.0162 131.105 54.8295C130.668 54.6375 130.284 54.3629 129.953 54.0055C129.628 53.6429 129.369 53.2029 129.177 52.6855C128.99 52.1629 128.897 51.5682 128.897 50.9015C128.897 50.2989 128.982 49.7415 129.153 49.2295C129.324 48.7122 129.572 48.2669 129.897 47.8935C130.228 47.5202 130.636 47.2295 131.121 47.0215C131.606 46.8082 132.166 46.7015 132.801 46.7015C133.393 46.7015 133.913 46.7975 134.361 46.9895C134.814 47.1815 135.217 47.4535 135.569 47.8055L135.113 48.4295ZM139.648 55.1175C138.971 55.1175 138.448 54.9282 138.08 54.5495C137.718 54.1655 137.536 53.6269 137.536 52.9335V48.1815H136.64C136.544 48.1815 136.462 48.1522 136.392 48.0935C136.323 48.0295 136.288 47.9362 136.288 47.8135V47.1175L137.608 46.9255L137.984 44.5655C138.011 44.4749 138.056 44.4029 138.12 44.3495C138.184 44.2909 138.27 44.2615 138.376 44.2615H139.256V46.9415H141.52V48.1815H139.256V52.8135C139.256 53.1069 139.328 53.3309 139.472 53.4855C139.616 53.6402 139.808 53.7175 140.048 53.7175C140.182 53.7175 140.296 53.7015 140.392 53.6695C140.488 53.6322 140.571 53.5949 140.64 53.5575C140.71 53.5149 140.768 53.4775 140.816 53.4455C140.87 53.4082 140.92 53.3895 140.968 53.3895C141.064 53.3895 141.142 53.4429 141.2 53.5495L141.712 54.3895C141.446 54.6242 141.131 54.8055 140.768 54.9335C140.406 55.0562 140.032 55.1175 139.648 55.1175ZM148.166 49.9895C148.166 49.7015 148.123 49.4349 148.038 49.1895C147.958 48.9389 147.838 48.7229 147.678 48.5415C147.518 48.3549 147.318 48.2109 147.078 48.1095C146.843 48.0029 146.571 47.9495 146.262 47.9495C145.638 47.9495 145.147 48.1282 144.79 48.4855C144.432 48.8429 144.206 49.3442 144.11 49.9895H148.166ZM144.062 51.0455C144.083 51.5095 144.155 51.9122 144.278 52.2535C144.4 52.5895 144.563 52.8695 144.766 53.0935C144.974 53.3175 145.219 53.4855 145.502 53.5975C145.79 53.7042 146.11 53.7575 146.462 53.7575C146.798 53.7575 147.088 53.7202 147.334 53.6455C147.579 53.5655 147.792 53.4802 147.974 53.3895C148.155 53.2935 148.31 53.2082 148.438 53.1335C148.566 53.0535 148.683 53.0135 148.79 53.0135C148.928 53.0135 149.035 53.0669 149.11 53.1735L149.598 53.8055C149.395 54.0455 149.166 54.2482 148.91 54.4135C148.654 54.5789 148.382 54.7149 148.094 54.8215C147.806 54.9229 147.51 54.9949 147.206 55.0375C146.902 55.0855 146.606 55.1095 146.318 55.1095C145.752 55.1095 145.227 55.0162 144.742 54.8295C144.262 54.6375 143.843 54.3575 143.486 53.9895C143.134 53.6215 142.856 53.1655 142.654 52.6215C142.456 52.0775 142.358 51.4509 142.358 50.7415C142.358 50.1762 142.446 49.6482 142.622 49.1575C142.803 48.6669 143.059 48.2402 143.39 47.8775C143.726 47.5149 144.131 47.2295 144.606 47.0215C145.086 46.8082 145.627 46.7015 146.23 46.7015C146.731 46.7015 147.195 46.7842 147.622 46.9495C148.048 47.1095 148.416 47.3469 148.726 47.6615C149.035 47.9762 149.275 48.3629 149.446 48.8215C149.622 49.2749 149.71 49.7922 149.71 50.3735C149.71 50.6402 149.68 50.8189 149.622 50.9095C149.563 51.0002 149.456 51.0455 149.302 51.0455H144.062ZM152.938 48.3415C153.194 47.8242 153.503 47.4189 153.866 47.1255C154.228 46.8269 154.663 46.6775 155.17 46.6775C155.346 46.6775 155.511 46.6989 155.666 46.7415C155.82 46.7789 155.959 46.8375 156.082 46.9175L155.962 48.2135C155.94 48.3042 155.906 48.3682 155.858 48.4055C155.815 48.4375 155.756 48.4535 155.682 48.4535C155.602 48.4535 155.487 48.4402 155.338 48.4135C155.188 48.3815 155.031 48.3655 154.866 48.3655C154.626 48.3655 154.412 48.4002 154.226 48.4695C154.044 48.5389 153.879 48.6402 153.73 48.7735C153.586 48.9069 153.458 49.0695 153.346 49.2615C153.234 49.4535 153.13 49.6722 153.034 49.9175V54.9895H151.314V46.8295H152.314C152.495 46.8295 152.62 46.8642 152.69 46.9335C152.759 46.9975 152.807 47.1122 152.834 47.2775L152.938 48.3415ZM162.045 48.3095C162.002 48.3842 161.954 48.4375 161.901 48.4695C161.848 48.5015 161.781 48.5175 161.701 48.5175C161.61 48.5175 161.512 48.4909 161.405 48.4375C161.298 48.3789 161.173 48.3149 161.029 48.2455C160.885 48.1762 160.714 48.1149 160.517 48.0615C160.325 48.0029 160.098 47.9735 159.837 47.9735C159.624 47.9735 159.429 48.0002 159.253 48.0535C159.082 48.1015 158.936 48.1735 158.813 48.2695C158.696 48.3602 158.605 48.4695 158.541 48.5975C158.477 48.7202 158.445 48.8535 158.445 48.9975C158.445 49.1895 158.504 49.3495 158.621 49.4775C158.738 49.6055 158.893 49.7175 159.085 49.8135C159.277 49.9042 159.496 49.9869 159.741 50.0615C159.986 50.1362 160.237 50.2162 160.493 50.3015C160.749 50.3869 161 50.4855 161.245 50.5975C161.49 50.7095 161.709 50.8482 161.901 51.0135C162.093 51.1735 162.248 51.3709 162.365 51.6055C162.482 51.8349 162.541 52.1149 162.541 52.4455C162.541 52.8295 162.472 53.1842 162.333 53.5095C162.194 53.8349 161.992 54.1175 161.725 54.3575C161.458 54.5975 161.125 54.7842 160.725 54.9175C160.33 55.0509 159.877 55.1175 159.365 55.1175C159.082 55.1175 158.808 55.0909 158.541 55.0375C158.28 54.9895 158.029 54.9229 157.789 54.8375C157.554 54.7469 157.333 54.6402 157.125 54.5175C156.922 54.3949 156.741 54.2615 156.581 54.1175L156.981 53.4615C157.029 53.3815 157.088 53.3202 157.157 53.2775C157.232 53.2295 157.322 53.2055 157.429 53.2055C157.541 53.2055 157.65 53.2429 157.757 53.3175C157.869 53.3869 157.997 53.4642 158.141 53.5495C158.29 53.6349 158.469 53.7149 158.677 53.7895C158.885 53.8589 159.144 53.8935 159.453 53.8935C159.709 53.8935 159.93 53.8642 160.117 53.8055C160.304 53.7415 160.458 53.6562 160.581 53.5495C160.704 53.4429 160.794 53.3229 160.853 53.1895C160.912 53.0509 160.941 52.9042 160.941 52.7495C160.941 52.5415 160.882 52.3709 160.765 52.2375C160.648 52.1042 160.49 51.9895 160.293 51.8935C160.101 51.7975 159.88 51.7122 159.629 51.6375C159.384 51.5629 159.133 51.4829 158.877 51.3975C158.621 51.3122 158.368 51.2135 158.117 51.1015C157.872 50.9895 157.65 50.8482 157.453 50.6775C157.261 50.5015 157.106 50.2909 156.989 50.0455C156.872 49.7949 156.813 49.4909 156.813 49.1335C156.813 48.8082 156.877 48.4989 157.005 48.2055C157.138 47.9122 157.33 47.6535 157.581 47.4295C157.837 47.2055 158.149 47.0295 158.517 46.9015C158.89 46.7682 159.32 46.7015 159.805 46.7015C160.354 46.7015 160.853 46.7895 161.301 46.9655C161.749 47.1415 162.125 47.3815 162.429 47.6855L162.045 48.3095Z" fill="#9C9C9C"/>
<g clip-path="url(#clip0_499_9828)">
<path d="M536.285 47.7897C536.439 47.9816 536.524 48.231 536.524 48.4896C536.524 48.7482 536.439 48.9976 536.285 49.1895C535.31 50.37 533.091 52.6682 530.5 52.6682C527.909 52.6682 525.69 50.37 524.715 49.1895C524.561 48.9976 524.476 48.7482 524.476 48.4896C524.476 48.231 524.561 47.9816 524.715 47.7897C525.69 46.6092 527.909 44.311 530.5 44.311C533.091 44.311 535.31 46.6092 536.285 47.7897Z" stroke="#505153" stroke-linecap="round" stroke-linejoin="round"/>
<path d="M530.5 50.3467C531.525 50.3467 532.357 49.5152 532.357 48.4895C532.357 47.4639 531.525 46.6324 530.5 46.6324C529.474 46.6324 528.643 47.4639 528.643 48.4895C528.643 49.5152 529.474 50.3467 530.5 50.3467Z" stroke="#505153" stroke-linecap="round" stroke-linejoin="round"/>
</g>
<defs>
<clipPath id="clip0_499_9828">
<rect width="13" height="13" fill="white" transform="translate(524 41.9895)"/>
</clipPath>
</defs>
</svg>
