<svg width="33" height="33" viewBox="0 0 33 33" fill="none" xmlns="http://www.w3.org/2000/svg">
<path d="M29.5738 13.8782H28.4998V13.8229H16.4998V19.1562H24.0352C22.9358 22.2609 19.9818 24.4895 16.4998 24.4895C12.0818 24.4895 8.49984 20.9075 8.49984 16.4895C8.49984 12.0715 12.0818 8.48954 16.4998 8.48954C18.5392 8.48954 20.3945 9.25887 21.8072 10.5155L25.5785 6.7442C23.1972 4.52487 20.0118 3.1562 16.4998 3.1562C9.1365 3.1562 3.1665 9.1262 3.1665 16.4895C3.1665 23.8529 9.1365 29.8229 16.4998 29.8229C23.8632 29.8229 29.8332 23.8529 29.8332 16.4895C29.8332 15.5955 29.7412 14.7229 29.5738 13.8782Z" fill="#FFC107"/>
<path d="M4.7041 10.2835L9.08477 13.4962C10.2701 10.5615 13.1408 8.48954 16.5001 8.48954C18.5394 8.48954 20.3948 9.25887 21.8074 10.5155L25.5788 6.7442C23.1974 4.52487 20.0121 3.1562 16.5001 3.1562C11.3788 3.1562 6.93743 6.04754 4.7041 10.2835Z" fill="#FF3D00"/>
<path d="M16.4999 29.8229C19.9439 29.8229 23.0732 28.5049 25.4392 26.3615L21.3125 22.8695C19.9289 23.9218 18.2382 24.4909 16.4999 24.4895C13.0319 24.4895 10.0872 22.2782 8.97788 19.1922L4.62988 22.5422C6.83655 26.8602 11.3179 29.8229 16.4999 29.8229Z" fill="#4CAF50"/>
<path d="M29.574 13.8782H28.5V13.8229H16.5V19.1562H24.0353C23.5095 20.6338 22.5622 21.925 21.3107 22.8702L21.3127 22.8689L25.4393 26.3609C25.1473 26.6262 29.8333 23.1562 29.8333 16.4895C29.8333 15.5955 29.7413 14.7229 29.574 13.8782Z" fill="#1976D2"/>
</svg>
